<?xml version="1.0" encoding="utf-8"?>
<!-- Generator: Adobe Illustrator 26.0.3, SVG Export Plug-In . SVG Version: 6.00 Build 0)  -->
<svg version="1.1" id="Layer_1" xmlns="http://www.w3.org/2000/svg" xmlns:xlink="http://www.w3.org/1999/xlink" x="0px" y="0px"
	 viewBox="0 0 1000 1000" style="enable-background:new 0 0 1000 1000;" xml:space="preserve">
<style type="text/css">
	.st0{fill:#ffffff;}
</style>
<path class="st0" d="M966.5,414.4h-142c-7.8-29.6-19.7-57.9-35.2-84.2L890,229.6c13.1-13.1,13.1-34.3,0-47.4l-71.7-71.7
	c-13.1-13.1-34.3-13.1-47.4,0L670,211.4c-26.4-15.5-54.8-27.2-84.4-34.9v-143c0-18.5-15-33.5-33.5-33.5l0,0H450.6
	c-18.5,0-33.5,15-33.5,33.5v143c-30.2,7.8-59.2,19.9-86.1,35.8L229.1,110.5c-13.1-13.1-34.3-13.1-47.4,0L110,182.2
	c-13.1,13.1-13.1,34.3,0,47.4L212.4,332c-15.1,25.8-26.6,53.6-34.2,82.5H33.5C15,414.4,0,429.4,0,447.9c0,0,0,0,0,0.1v101.4
	c0,18.5,15,33.5,33.5,33.5l0,0h144c7.7,30.1,19.5,58.9,35.2,85.7L110,771.3c-13.1,13.1-13.1,34.3,0,47.4l71.7,71.7
	c13.1,13.1,34.3,13.1,47.4,0L331.6,788c26.7,15.8,55.5,27.7,85.5,35.5v143c0,18.5,15,33.5,33.5,33.5H552c18.5,0,33.5-15,33.5-33.5
	l0,0v-143c29.4-7.6,57.6-19.2,83.8-34.5l101.4,101.4c13.1,13.1,34.3,13.1,47.4,0l71.8-71.7c13.1-13.1,13.1-34.3,0-47.4l-101-101
	c16.2-27.3,28.4-56.7,36.2-87.4h141.3c18.5,0,33.5-15,33.5-33.5V448C1000,429.5,985,414.5,966.5,414.4L966.5,414.4z M370.8,535.1
	C345.1,434.2,434.2,345,535.2,370.7c41,10.5,83.6,53.1,94.1,94.1C655,565.7,565.9,654.9,465,629.1
	C423.9,618.8,381.2,576.1,370.8,535.1z"/>
</svg>
