<svg width="1000" height="1000" viewBox="0 0 1000 1000" fill="none" xmlns="http://www.w3.org/2000/svg">
<rect width="1000" height="1000" rx="200" fill="black"/>
<path d="M15.9999 846.606L416.24 125.63L609.426 177.393L402.37 950.134L209.185 898.37L15.9999 846.606Z" fill="#FF0000"/>
<path d="M55.713 351.528L404.19 879.319L597.375 827.555L442.083 248L55.713 351.528Z" fill="#FAB03A"/>
<path d="M597.173 270.458L635.067 901.778L828.252 953.542L983.544 373.986L597.173 270.458Z" fill="#FAB03A"/>
<path d="M846.847 522.713C840.05 548.082 828.321 571.864 812.333 592.701C796.344 613.538 776.408 631.022 753.662 644.154C730.916 657.286 705.807 665.81 679.767 669.238C653.728 672.666 627.268 670.932 601.898 664.134L653.662 470.949L846.847 522.713Z" fill="#999898"/>
<path d="M476.11 775.397L749.315 848.603L576.11 948.603L476.11 775.397Z" fill="#8DC73F"/>
<rect x="725.713" y="47" width="200" height="800" transform="rotate(30 725.713 47)" fill="white"/>
</svg>
