<svg width="1000" height="1000" viewBox="0 0 1000 1000" fill="none" xmlns="http://www.w3.org/2000/svg">
<rect width="1000" height="1000" rx="200" fill="black"/>
<path d="M100 893L300 93H500V893H300H100Z" fill="#FF0000"/>
<path d="M100 293L300 893H500V293H100Z" fill="#FAB03A"/>
<rect x="300" y="93" width="200" height="800" fill="white"/>
<rect x="500" y="293" width="200" height="600" fill="#FAB03A"/>
<path d="M900 893L700 293V893H900Z" fill="#FAB03A"/>
<path d="M700 293C700 319.264 694.827 345.272 684.776 369.537C674.725 393.802 659.993 415.85 641.421 434.421C622.85 452.993 600.802 467.725 576.537 477.776C552.272 487.827 526.264 493 500 493L500 293H700Z" fill="#999898"/>
<path d="M500 693L700 893H500V693Z" fill="#8DC73F"/>
</svg>
